<svg xmlns="http://www.w3.org/2000/svg" xmlns:svg="http://www.w3.org/2000/svg" id="svg2" width="636" height="1078.667" version="1.1" viewBox="0 0 636 1078.667" xml:space="preserve"><metadata id="metadata8"/><g id="g10" transform="matrix(1.3333333,0,0,-1.3333333,0,1078.6667)"><g id="g12" transform="scale(0.1)"><path id="path14" d="M 4.80078,6993.95 H 1591.6408 v 545.621 H 4.80078 Z" style="fill:none;stroke:#000;stroke-width:9.62353039;stroke-linecap:butt;stroke-linejoin:miter;stroke-miterlimit:4;stroke-dasharray:none;stroke-opacity:1"/><path id="path16" d="M 4.80078,7539.58 H 1591.6408 v 545.617 H 4.80078 Z" style="fill:none;stroke:#000;stroke-width:9.62353039;stroke-linecap:butt;stroke-linejoin:miter;stroke-miterlimit:4;stroke-dasharray:none;stroke-opacity:1"/><g id="g18" transform="scale(10)"><text id="text22" transform="matrix(1,0,0,-1,25.5586,773.508)" style="font-variant:normal;font-weight:400;font-size:18.9279995px;font-family:Helvetica;-inkscape-font-specification:ArialMT;writing-mode:lr-tb;fill:#000;fill-opacity:1;fill-rule:nonzero;stroke:none"><tspan id="tspan20" x="0 13.666 24.19 34.714 45.238 55.762 62.065" y="0">Headers</tspan></text></g><path id="path24" d="M 4.80078,6448.33 H 1591.6408 v 545.617 H 4.80078 Z" style="fill:none;stroke:#000;stroke-width:9.62353039;stroke-linecap:butt;stroke-linejoin:miter;stroke-miterlimit:4;stroke-dasharray:none;stroke-opacity:1"/><g id="g26" transform="scale(10)"><text id="text30" transform="matrix(1,0,0,-1,25.5586,664.384)" style="font-variant:normal;font-weight:400;font-size:18.9279995px;font-family:Helvetica;-inkscape-font-specification:ArialMT;writing-mode:lr-tb;fill:#000;fill-opacity:1;fill-rule:nonzero;stroke:none"><tspan id="tspan28" x="0 5.262 10.524 21.048 30.512" y="0">.text</tspan></text></g><path id="path32" d="M 4.80078,5902.7 H 1591.6408 v 545.621 H 4.80078 Z" style="fill:none;stroke:#000;stroke-width:9.62353039;stroke-linecap:butt;stroke-linejoin:miter;stroke-miterlimit:4;stroke-dasharray:none;stroke-opacity:1"/><g id="g34" transform="scale(10)"><text id="text38" transform="matrix(1,0,0,-1,25.5586,609.822)" style="font-variant:normal;font-weight:400;font-size:18.9279995px;font-family:Helvetica;-inkscape-font-specification:ArialMT;writing-mode:lr-tb;fill:#000;fill-opacity:1;fill-rule:nonzero;stroke:none"><tspan id="tspan36" x="0 5.262 11.565 22.089 32.613 43.137 48.399" y="0">.rodata</tspan></text></g><path id="path40" d="M 4.80078,5357.11 H 1591.6408 V 5902.7 H 4.80078 Z" style="fill:none;stroke:#000;stroke-width:9.62353039;stroke-linecap:butt;stroke-linejoin:miter;stroke-miterlimit:4;stroke-dasharray:none;stroke-opacity:1"/><g id="g42" transform="scale(10)"><text id="text46" transform="matrix(1,0,0,-1,25.5586,555.261)" style="font-variant:normal;font-weight:400;font-size:18.9279995px;font-family:Helvetica;-inkscape-font-specification:ArialMT;writing-mode:lr-tb;fill:#000;fill-opacity:1;fill-rule:nonzero;stroke:none"><tspan id="tspan44" x="0 5.262 15.786 26.31 31.572 37.875 48.399 64.166" y="0">.ehframe</tspan></text></g><path id="path48" d="m 15.3086,3829.77 h 1586.84 v 545.621 H 15.3086 Z" style="fill:none;stroke:#000;stroke-width:9.62353039;stroke-linecap:butt;stroke-linejoin:miter;stroke-miterlimit:4;stroke-dasharray:none;stroke-opacity:1"/><path id="path50" d="m 15.3086,3284.15 h 1586.84 v 545.621 H 15.3086 Z" style="fill:none;stroke:#000;stroke-width:9.62353039;stroke-linecap:butt;stroke-linejoin:miter;stroke-miterlimit:4;stroke-dasharray:none;stroke-opacity:1"/><path id="path52" d="m 15.3086,2738.52 h 1586.84 v 545.621 H 15.3086 Z" style="fill:none;stroke:#000;stroke-width:9.62353039;stroke-linecap:butt;stroke-linejoin:miter;stroke-miterlimit:4;stroke-dasharray:none;stroke-opacity:1"/><g id="g54" transform="scale(10)"><text id="text58" transform="matrix(1,0,0,-1,26.607,293.404)" style="font-variant:normal;font-weight:400;font-size:18.9279995px;font-family:Helvetica;-inkscape-font-specification:ArialMT;writing-mode:lr-tb;fill:#000;fill-opacity:1;fill-rule:nonzero;stroke:none"><tspan id="tspan56" x="0 5.262 15.786 26.31 31.572 42.096 47.358 53.661 64.185 68.387 73.649 79.952" y="0">.data.rel.ro</tspan></text></g><path id="path60" d="m 15.3086,2192.9 h 1586.84 v 545.621 H 15.3086 Z" style="fill:none;stroke:#000;stroke-width:9.62353039;stroke-linecap:butt;stroke-linejoin:miter;stroke-miterlimit:4;stroke-dasharray:none;stroke-opacity:1"/><g id="g62" transform="scale(10)"><text id="text66" transform="matrix(1,0,0,-1,26.607,238.842)" style="font-variant:normal;font-weight:400;font-size:18.9279995px;font-family:Helvetica;-inkscape-font-specification:ArialMT;writing-mode:lr-tb;fill:#000;fill-opacity:1;fill-rule:nonzero;stroke:none"><tspan id="tspan64" x="0 5.262 15.786 25.25 35.774 46.298 62.065 66.267" y="0">.dynamic</tspan></text></g><path id="path68" d="m 15.3086,1647.3 h 1586.84 v 545.59 H 15.3086 Z" style="fill:none;stroke:#000;stroke-width:9.62353039;stroke-linecap:butt;stroke-linejoin:miter;stroke-miterlimit:4;stroke-dasharray:none;stroke-opacity:1"/><g id="g70" transform="scale(10)"><text id="text74" transform="matrix(1,0,0,-1,26.607,184.28)" style="font-variant:normal;font-weight:400;font-size:18.9279995px;font-family:Helvetica;-inkscape-font-specification:ArialMT;writing-mode:lr-tb;fill:#000;fill-opacity:1;fill-rule:nonzero;stroke:none"><tspan id="tspan72" x="0 5.262 15.786 26.31" y="0">.got</tspan></text></g><path id="path76" d="m 15.3086,1101.68 h 1586.84 v 545.621 H 15.3086 Z" style="fill:none;stroke:#000;stroke-width:9.62353039;stroke-linecap:butt;stroke-linejoin:miter;stroke-miterlimit:4;stroke-dasharray:none;stroke-opacity:1"/><g id="g78" transform="scale(10)"><text id="text82" transform="matrix(1,0,0,-1,26.607,129.718)" style="font-variant:normal;font-weight:400;font-size:18.9279995px;font-family:Helvetica;-inkscape-font-specification:ArialMT;writing-mode:lr-tb;fill:#000;fill-opacity:1;fill-rule:nonzero;stroke:none"><tspan id="tspan80" x="0 5.262 15.786 26.31 31.572 36.834 47.358 51.56" y="0">.got.plt</tspan></text></g><path id="path84" d="m 15.3086,1101.68 h 1586.84 v 545.621 H 15.3086 Z" style="fill:none;stroke:#000;stroke-width:9.62353039;stroke-linecap:butt;stroke-linejoin:miter;stroke-miterlimit:4;stroke-dasharray:none;stroke-opacity:1"/><g id="g86" transform="scale(10)"><text id="text102" transform="matrix(1,0,0,-1,25.191684,361.998)" style="font-variant:normal;font-weight:400;font-size:18.9279995px;font-family:Helvetica;-inkscape-font-specification:ArialMT;writing-mode:lr-tb;fill:#000;fill-opacity:1;fill-rule:nonzero;stroke:none"><tspan id="tspan88" x="0 5.262 9.464 19.988 24.19 29.452 39.976 50.5 56.803 63.106 73.63" y="0">.init_array</tspan><tspan id="tspan90" x="-5.262 0 5.262 10.524 14.726 25.25 29.452 39.976 50.5 56.803 63.106 73.63" y="23.66"> .fini_array</tspan><tspan id="tspan92" x="-4.726 .536 5.798 16.321 26.845 32.107" y="-53.035">.tdata</tspan><tspan id="tspan94" x="-4.726 .536 5.798 16.321 25.785" y="-29.375">.tbss</tspan><tspan id="tspan96" x=".342 5.604 16.128 20.33" y="-358.581">.plt</tspan><tspan id="tspan98" x="37.518 50.143 54.345 58.547 69.071 79.595 95.362 105.886 116.41" y="-131.435">Alignment</tspan><tspan id="tspan100" x="37.518 48.042 58.566 69.09 79.614 83.816 94.34" y="-107.775">padding</tspan></text><text id="text120" transform="matrix(1,0,0,-1,206.2808,687.8971)" style="font-variant:normal;font-weight:400;font-size:18px;font-family:Helvetica;-inkscape-font-specification:DejaVuSans;writing-mode:lr-tb;fill:#000;fill-opacity:1;fill-rule:nonzero;stroke:none"><tspan id="tspan104" x="0 7.938 18.684 29.34" y="0">Text</tspan><tspan id="tspan106" x="0 11.43 22.5 33.93 51.462 62.532 73.944" y="27.5">Segment</tspan><tspan id="tspan108" x="8.036 21.896 32.93 39.986" y="459.643">Data</tspan><tspan id="tspan110" x="8.036 19.466 30.536 41.966 59.498 70.568 81.98" y="487.143">Segment</tspan><tspan id="tspan112" x="182.679 194.109 205.539 216.573 227.985 233.709 244.725" y="222.857">Span of</tspan><tspan id="tspan114" x="182.679 189.735 200.481 211.137 218.193 223.917 234.951 246.363" y="250.357">text and</tspan><tspan id="tspan116" x="182.679 194.109 205.143 212.199" y="277.857">data</tspan><tspan id="tspan118" x="182.679 192.057 203.127 214.557 232.089 243.159 254.571 261.627" y="305.357">segments</tspan></text></g><path id="path122" d="M 1939.61,8030.74 V 5411.13" style="fill:none;stroke:#000;stroke-width:11.33860016;stroke-linecap:butt;stroke-linejoin:miter;stroke-miterlimit:4;stroke-dasharray:none;stroke-opacity:1"/><path id="path124" d="m 1889.3,7909.53 50.11,136.29 50.08,-136.29 c -29.57,21.8 -70.04,21.64 -100.19,0 z" style="fill:#000;fill-opacity:1;fill-rule:evenodd;stroke:none"/><path id="path126" d="m 1889.3,7909.53 50.11,136.29 50.08,-136.29 c -29.57,21.8 -70.04,21.64 -100.19,0 z" style="fill:none;stroke:#000;stroke-width:7.79527998;stroke-linecap:butt;stroke-linejoin:round;stroke-miterlimit:4;stroke-dasharray:none;stroke-opacity:1"/><path id="path128" d="m 1939.61,5524.49 -45.35,45.35 45.35,-158.71 45.35,158.71 z" style="fill:#000;fill-opacity:1;fill-rule:evenodd;stroke:none"/><path id="path130" d="m 1939.61,5524.49 -45.35,45.35 45.35,-158.71 45.35,158.71 z" style="fill:none;stroke:#000;stroke-width:12.09449959;stroke-linecap:butt;stroke-linejoin:miter;stroke-miterlimit:4;stroke-dasharray:none;stroke-opacity:1"/><path id="path132" d="M 359.262,5218.24 V 4511.13" style="fill:none;stroke:#000;stroke-width:11.33860016;stroke-linecap:butt;stroke-linejoin:miter;stroke-miterlimit:4;stroke-dasharray:none;stroke-opacity:1"/><path id="path134" d="m 308.949,5097.03 50.071,136.29 50.121,-136.29 c -29.571,21.8 -70.039,21.64 -100.192,0 z" style="fill:#000;fill-opacity:1;fill-rule:evenodd;stroke:none"/><path id="path136" d="m 308.949,5097.03 50.071,136.29 50.121,-136.29 c -29.571,21.8 -70.039,21.64 -100.192,0 z" style="fill:none;stroke:#000;stroke-width:7.79527998;stroke-linecap:butt;stroke-linejoin:round;stroke-miterlimit:4;stroke-dasharray:none;stroke-opacity:1"/><path id="path138" d="m 359.262,4624.49 -45.391,45.35 45.391,-158.71 45.347,158.71 z" style="fill:#000;fill-opacity:1;fill-rule:evenodd;stroke:none"/><path id="path140" d="m 359.262,4624.49 -45.391,45.35 45.391,-158.71 45.347,158.71 z" style="fill:none;stroke:#000;stroke-width:12.09449959;stroke-linecap:butt;stroke-linejoin:miter;stroke-miterlimit:4;stroke-dasharray:none;stroke-opacity:1"/><path id="path142" d="M 1982.46,4328.98 V 70.0391" style="fill:none;stroke:#000;stroke-width:11.33860016;stroke-linecap:butt;stroke-linejoin:miter;stroke-miterlimit:4;stroke-dasharray:none;stroke-opacity:1"/><path id="path144" d="m 1932.15,4207.77 50.12,136.25 50.11,-136.25 c -29.61,21.76 -70.08,21.64 -100.23,0 z" style="fill:#000;fill-opacity:1;fill-rule:evenodd;stroke:none"/><path id="path146" d="m 1932.15,4207.77 50.12,136.25 50.11,-136.25 c -29.61,21.76 -70.08,21.64 -100.23,0 z" style="fill:none;stroke:#000;stroke-width:7.79527998;stroke-linecap:butt;stroke-linejoin:round;stroke-miterlimit:4;stroke-dasharray:none;stroke-opacity:1"/><path id="path148" d="m 1982.46,183.441 -45.35,45.348 45.35,-158.7499 45.35,158.7499 z" style="fill:#000;fill-opacity:1;fill-rule:evenodd;stroke:none"/><path id="path150" d="m 1982.46,183.441 -45.35,45.348 45.35,-158.7499 45.35,158.7499 z" style="fill:none;stroke:#000;stroke-width:12.09449959;stroke-linecap:butt;stroke-linejoin:miter;stroke-miterlimit:4;stroke-dasharray:none;stroke-opacity:1"/><path id="path152" d="M 3707.46,8025.27 V 32.6992" style="fill:none;stroke:#000;stroke-width:11.37279987;stroke-linecap:butt;stroke-linejoin:miter;stroke-miterlimit:4;stroke-dasharray:none;stroke-opacity:1"/><path id="path154" d="m 3656.99,7903.71 50.28,136.68 50.23,-136.68 c -29.65,21.84 -70.27,21.72 -100.51,0 z" style="fill:#000;fill-opacity:1;fill-rule:evenodd;stroke:none"/><path id="path156" d="m 3656.99,7903.71 50.28,136.68 50.23,-136.68 c -29.65,21.84 -70.27,21.72 -100.51,0 z" style="fill:none;stroke:#000;stroke-width:7.81876993;stroke-linecap:butt;stroke-linejoin:round;stroke-miterlimit:4;stroke-dasharray:none;stroke-opacity:1"/><path id="path158" d="m 3707.46,146.41 -45.51,45.5 45.51,-159.2108 45.47,159.2108 z" style="fill:#000;fill-opacity:1;fill-rule:evenodd;stroke:none"/><path id="path160" d="m 3707.46,146.41 -45.51,45.5 45.51,-159.2108 45.47,159.2108 z" style="fill:none;stroke:#000;stroke-width:12.13090038;stroke-linecap:butt;stroke-linejoin:miter;stroke-miterlimit:4;stroke-dasharray:none;stroke-opacity:1"/><path id="path162" d="m 15.3086,556.059 h 1586.84 V 1101.68 H 15.3086 Z" style="fill:none;stroke:#000;stroke-width:9.62353039;stroke-linecap:butt;stroke-linejoin:miter;stroke-miterlimit:4;stroke-dasharray:none;stroke-opacity:1"/><g id="g164" transform="scale(10)"><text id="text168" transform="matrix(1,0,0,-1,28.107,75.1563)" style="font-variant:normal;font-weight:400;font-size:18.9279995px;font-family:Helvetica;-inkscape-font-specification:ArialMT;writing-mode:lr-tb;fill:#000;fill-opacity:1;fill-rule:nonzero;stroke:none"><tspan id="tspan166" x="0 5.262 15.786 26.31 31.572" y="0">.data</tspan></text></g><path id="path170" d="m 15.3086,10.4297 h 1586.84 v 545.621 H 15.3086 Z" style="fill:none;stroke:#000;stroke-width:9.62353039;stroke-linecap:butt;stroke-linejoin:miter;stroke-miterlimit:4;stroke-dasharray:none;stroke-opacity:1"/><g id="g172" transform="scale(10)"><text id="text176" transform="matrix(1,0,0,-1,26.607,20.5945)" style="font-variant:normal;font-weight:400;font-size:18.9279995px;font-family:Helvetica;-inkscape-font-specification:ArialMT;writing-mode:lr-tb;fill:#000;fill-opacity:1;fill-rule:nonzero;stroke:none"><tspan id="tspan174" x="0 5.262 15.786 25.25" y="0">.bss</tspan></text></g><path id="path178" d="m 15.3086,10.4297 h 1586.84 v 545.621 H 15.3086 Z" style="fill:none;stroke:#000;stroke-width:9.62353039;stroke-linecap:butt;stroke-linejoin:miter;stroke-miterlimit:4;stroke-dasharray:none;stroke-opacity:1"/></g></g></svg>